<svg xmlns="http://www.w3.org/2000/svg" xml:space="preserve" version="1.1" fill-rule="evenodd" viewBox="0 0 7.425 8.343">
  <g>
  <rect fill="#ffffff" transform="matrix(-0.208879 -0.1206 0.1206 -0.208879 6.81308 2.743)" width="16.341" height="1.466"/>
  <rect fill="#ffffff" transform="matrix(-0.208879 -0.1206 0.1206 -0.208879 3.84792 7.87927)" width="16.341" height="1.466"/>
  <rect fill="#ffffff" transform="matrix(-0.1206 -0.208879 0.208879 -0.1206 0.612369 2.74165)" width="1.466" height="16.341"/>
  <rect fill="#ffffff" x="0.57" y="2.201" width="0.354" height="3.941"/>
  <rect fill="#ffffff" x="6.502" y="2.201" width="0.354" height="3.941"/>
  <rect fill="#ffffff" transform="matrix(-0.1206 -0.208879 0.208879 -0.1206 3.78771 7.72957)" width="1.281" height="14.212"/>
  <path fill="#ffffff" d="M7.324 6.257c-0.205,0.356 -0.661,0.478 -1.016,0.273 -0.356,-0.204 -0.478,-0.66 -0.273,-1.016 0.204,-0.356 0.66,-0.477 1.016,-0.273 0.358,0.207 0.48,0.661 0.273,1.016z"/>
  <path fill="#ffffff" d="M1.388 2.829c-0.204,0.356 -0.66,0.478 -1.016,0.273 -0.356,-0.204 -0.477,-0.66 -0.273,-1.016 0.205,-0.356 0.661,-0.477 1.017,-0.273 0.355,0.207 0.477,0.661 0.272,1.016z"/>
  <path fill="#ffffff" d="M0.101 6.257c-0.204,-0.355 -0.083,-0.809 0.273,-1.016 0.356,-0.204 0.81,-0.083 1.016,0.273 0.205,0.356 0.083,0.809 -0.272,1.016 -0.358,0.205 -0.812,0.083 -1.017,-0.273z"/>
  <path fill="#ffffff" d="M6.037 2.829c-0.204,-0.355 -0.083,-0.809 0.273,-1.016 0.356,-0.204 0.809,-0.083 1.016,0.273 0.205,0.356 0.083,0.809 -0.273,1.016 -0.355,0.205 -0.811,0.083 -1.016,-0.273z"/>
  <path fill="#ffffff" d="M3.713 8.343c-0.412,0 -0.744,-0.332 -0.744,-0.743 0,-0.412 0.332,-0.744 0.744,-0.744 0.411,0 0.743,0.332 0.743,0.744 0,0.409 -0.332,0.743 -0.743,0.743z"/>
  <path fill="#ffffff" d="M3.713 1.487c-0.412,0 -0.744,-0.332 -0.744,-0.743 0,-0.412 0.332,-0.744 0.744,-0.744 0.411,0 0.743,0.332 0.743,0.744 0,0.411 -0.332,0.743 -0.743,0.743z"/>
  <path fill="#ffffff" d="M1.886 6.338l1.847 1.066 0.437 -0.252 -0.252 -1.288c-0.045,-0.155 -0.183,-0.602 -0.206,-0.723 -0.098,-0.019 -0.211,-0.051 -0.308,-0.078 -0.079,-0.021 -0.254,-0.06 -0.205,-0.169 0.013,-0.028 0.083,-0.059 0.115,-0.082 0.078,-0.057 0.134,-0.12 0.219,-0.169 0.047,-0.027 0.103,-0.025 0.131,-0.057 0.001,-0.07 -0.082,-0.119 -0.076,-0.173 0.01,-0.074 0.138,-0.017 0.185,-0.072 0.014,-0.065 -0.039,-0.148 -0.05,-0.214 0.074,-0.055 0.249,-0.095 0.305,-0.16 -0.052,-0.077 -0.269,-0.142 -0.285,-0.227 0.025,-0.034 0.085,-0.042 0.127,-0.06 0.125,-0.051 0.27,-0.125 0.375,-0.194 -0.012,-0.021 0,-0.005 -0.019,-0.02 -0.092,-0.071 -0.284,-0.113 -0.364,-0.179l0.14 -0.139c0.052,-0.048 0.213,-0.166 0.218,-0.23 -0.068,-0.037 -0.347,-0.023 -0.45,-0.091 0,-0.067 0.215,-0.382 0.253,-0.487 -0.121,0.006 -0.356,0.146 -0.473,0.136 -0.07,-0.089 -0.053,-0.569 -0.065,-0.583 -0.011,-0.006 0.008,-0.006 -0.021,-0.006 -0.006,0 -0.016,0.004 -0.021,0.006 -0.188,0.074 -0.351,0.283 -0.47,0.372 -0.032,-0.022 -0.235,-0.28 -0.277,-0.33 -0.019,-0.023 -0.067,-0.089 -0.115,-0.077 -0.011,0.023 -0.038,0.217 -0.049,0.264 -0.02,0.088 -0.049,0.17 -0.068,0.248 -0.114,-0.003 -0.398,-0.165 -0.48,-0.131 -0.002,0.034 0.062,0.167 0.078,0.213 0.027,0.079 0.049,0.16 0.051,0.251 -0.099,0.054 -0.532,0.029 -0.601,0.08 0.018,0.039 0.147,0.157 0.186,0.201 0.035,0.039 0.138,0.164 0.147,0.237 -0.023,0.046 -0.141,0.13 -0.191,0.165 -0.046,0.033 -0.176,0.116 -0.19,0.157 0.065,0.054 0.224,0.049 0.398,0.22 0.048,0.047 0.034,0.068 -0.035,0.139 -0.046,0.047 -0.16,0.137 -0.168,0.211 0.091,0.06 0.217,0.088 0.319,0.139 0.01,0.095 -0.071,0.249 -0.05,0.306 0.045,0.046 0.219,0.006 0.29,0.017 0.007,0.063 -0.002,0.173 0.046,0.198 0.092,0.034 0.067,-0.107 0.223,-0.006 0.091,0.059 0.187,0.073 0.198,0.123 0.024,0.097 -0.103,0.118 -0.174,0.142 -0.081,0.028 -0.158,0.051 -0.241,0.08 -0.13,0.045 -0.125,0.021 -0.171,0.15 -0.041,0.117 -0.202,0.719 -0.222,0.74l0.009 0.336zm3.791 -0.056l-1.507 0.87 -0.072 -0.393 0.048 -0.212c0.055,-0.177 -0.006,-0.332 0.224,-0.73 0.049,0.015 0.187,0.088 0.238,0.064 -0.014,-0.03 -0.134,-0.07 -0.166,-0.088 -0.06,-0.033 -0.102,-0.062 -0.155,-0.101 -0.161,-0.121 -0.197,-0.245 -0.269,-0.249 -0.048,-0.002 -0.066,0.009 -0.105,-0.02 -0.074,-0.057 -0.134,-0.187 -0.069,-0.271 0.05,-0.064 0.063,-0.058 0.005,-0.176 -0.115,-0.233 -0.08,-0.142 -0.025,-0.385 0.057,-0.248 0.051,-0.337 0.227,-0.547 0.081,-0.097 0.16,-0.176 0.264,-0.255 0.099,-0.075 0.225,-0.12 0.371,-0.149 0.355,-0.069 0.565,-0.02 0.832,0.135 0.205,0.119 0.374,0.355 0.441,0.588 0.113,0.392 0.021,0.548 0.027,0.693 0.006,0.113 0.139,0.242 -0.063,0.362 -0.017,0.01 -0.023,0.016 -0.038,0.028 -0.015,0.012 -0.024,0.016 -0.037,0.029 -0.028,0.026 -0.047,0.036 -0.07,0.062 -0.048,0.056 -0.228,0.213 -0.257,0.263 0.03,0.084 0.088,0.169 0.123,0.252 0.011,0.027 0.02,0.072 0.032,0.092l0.001 0.138zm-1.512 -1.518c-0.024,0.429 0.599,0.513 0.702,0.11 0.016,-0.06 0.012,-0.141 -0.012,-0.196 -0.021,-0.046 -0.054,-0.112 -0.085,-0.139 -0.099,0.09 -0.105,0.128 -0.248,0.165 -0.112,0.028 -0.239,0.041 -0.357,0.06zm-1.082 -1.494c-0.065,0.012 -0.087,0.032 -0.105,0.095 -0.041,0.143 0.068,0.114 0.258,0.141 0.153,0.022 0.271,0.086 0.269,-0.058 -0.001,-0.135 -0.286,-0.203 -0.422,-0.178zm-0.266 0.248c0.076,-0.275 -0.209,-0.384 -0.289,-0.371 -0.143,0.024 -0.266,0.208 -0.235,0.33 0.01,0.035 0.035,0.039 0.074,0.042 0.126,0.011 0.321,0.005 0.45,-0.001zm2.936 1.222c-0.656,-0.034 -0.53,-0.155 -0.61,-0.199 -0.032,0.018 -0.068,0.091 -0.082,0.14 -0.032,0.112 -0.015,0.261 0.074,0.338 0.036,0.031 0.08,0.063 0.139,0.081 0.125,0.038 0.257,0.013 0.344,-0.052 0.094,-0.069 0.133,-0.151 0.135,-0.308z"/>
  </g>
</svg>
